<svg width="78" height="66" viewBox="0 0 78 66" fill="none" xmlns="http://www.w3.org/2000/svg">
<path d="M39 0C26.442 0 10.1426 3.14648 10.1426 3.14648L10.1016 3.19336C4.38199 4.10809 0 9.02287 0 15V33V33.0059V51V51.0059C0.00558136 53.8605 1.02861 56.6196 2.88539 58.7878C4.74218 60.956 7.31109 62.3913 10.1309 62.8359L10.1426 62.8535C10.1426 62.8535 26.442 66.0059 39 66.0059C51.558 66.0059 67.8574 62.8535 67.8574 62.8535L67.8633 62.8477C70.6861 62.404 73.258 60.9675 75.1162 58.7968C76.9744 56.626 77.997 53.8633 78 51.0059V51V33.0059V33V15C77.9958 12.1444 76.9734 9.38386 75.1165 7.21442C73.2596 5.04499 70.6899 3.60886 67.8691 3.16406L67.8574 3.14648C67.8574 3.14648 51.558 0 39 0ZM30 19.1953L54 33L30 46.8047V19.1953Z" fill="#F29D38"/>
</svg>
